# Rhino

mtllib personable_robotics_osc.mtl
g aabb_bounds
usemtl diffuse_255_75_92_255
v 530 -600 900
v 530 -600 -300
v 530 600 900
v 530 600 -300
v 530 600 900
v 530 600 -300
v 1100 600 900
v 1100 600 -300
v 1100 600 900
v 1100 600 -300
v 1100 -600 900
v 1100 -600 -300
v 1100 -600 900
v 1100 -600 -300
v 530 -600 900
v 530 -600 -300
v 530 -600 900
v 530 600 900
v 1100 600 900
v 1100 -600 900
v 530 -600 -300
v 530 600 -300
v 1100 600 -300
v 1100 -600 -300
vt 0 0
vt 0 0.75640970468521118
vt 0.33898305892944336 0
vt 0.33898305892944336 0.75640970468521118
vt 0.33898305892944336 0
vt 0.33898305892944336 0.75640970468521118
vt 0.5 0
vt 0.5 0.75640970468521118
vt 0.5 0
vt 0.5 0.75640970468521118
vt 0.83898305892944336 0
vt 0.83898305892944336 0.75640970468521118
vt 0.83898305892944336 0
vt 0.83898305892944336 0.75640970468521118
vt 1 0
vt 1 0.75640970468521118
vt 0 1
vt 0.33898305892944336 1
vt 0.33898305892944336 0.75641041994094849
vt 0 0.75641041994094849
vt 0.66101694107055664 0.75641041994094849
vt 1 0.75641041994094849
vt 1 1
vt 0.66101694107055664 1
vn -1 0 0
vn -1 0 0
vn -1 0 0
vn -1 0 0
vn 0 1 0
vn 0 1 0
vn 0 1 0
vn 0 1 0
vn 1 0 0
vn 1 0 0
vn 1 0 0
vn 1 0 0
vn 0 -1 0
vn 0 -1 0
vn 0 -1 0
vn 0 -1 0
vn 0 0 1
vn 0 0 1
vn 0 0 1
vn 0 0 1
vn 0 0 -1
vn 0 0 -1
vn 0 0 -1
vn 0 0 -1
f 18/18/18 17/17/17 20/20/20 19/19/19
f 24/24/24 21/21/21 22/22/22 23/23/23
f 1/1/1 3/3/3 4/4/4 2/2/2
f 5/5/5 7/7/7 8/8/8 6/6/6
f 9/9/9 11/11/11 12/12/12 10/10/10
f 13/13/13 15/15/15 16/16/16 14/14/14
